<mxfile host="app.diagrams.net" modified="2020-12-31T10:29:10.418Z" agent="5.0 (Windows NT 10.0; Win64; x64) AppleWebKit/537.36 (KHTML, like Gecko) Chrome/87.0.4280.88 Safari/537.36 Edg/87.0.664.66" etag="6x8g9NxrdM4IxwrFMhmc" version="14.1.4" type="github">
  <diagram id="yDZNZEaYdnecjmXSINiD" name="Page-1">
    <mxGraphModel dx="3076" dy="794" grid="1" gridSize="10" guides="1" tooltips="1" connect="1" arrows="1" fold="1" page="1" pageScale="1" pageWidth="827" pageHeight="1169" math="0" shadow="0">
      <root>
        <mxCell id="0" />
        <mxCell id="1" parent="0" />
        <UserObject label="(0,N)" lucidchartObjectId="5Z11jnNYv.fa" id="slzZj2nYpp9q2PrkH6n9-9">
          <mxCell style="html=1;overflow=block;blockSpacing=1;whiteSpace=wrap;strokeColor=none;fillColor=none;whiteSpace=wrap;fontSize=18;fontColor=#333333;align=center;spacing=0;strokeOpacity=100;fillOpacity=100;rounded=1;absoluteArcSize=1;arcSize=7;strokeWidth=2;" vertex="1" parent="1">
            <mxGeometry x="-168" y="626" width="42" height="25" as="geometry" />
          </mxCell>
        </UserObject>
        <UserObject label="Utente" lucidchartObjectId="5Z11nYX659Pr" id="slzZj2nYpp9q2PrkH6n9-10">
          <mxCell style="html=1;overflow=block;blockSpacing=1;whiteSpace=wrap;;whiteSpace=wrap;fontSize=27;fontColor=#333333;align=center;spacing=7;strokeColor=#5e5e5e;strokeOpacity=100;fillOpacity=100;rounded=1;absoluteArcSize=1;arcSize=7;fillColor=#ffc374;strokeWidth=2;" vertex="1" parent="1">
            <mxGeometry x="-164" y="651" width="173" height="145" as="geometry" />
          </mxCell>
        </UserObject>
        <UserObject label="Sub" lucidchartObjectId="5Z11T_onsmou" id="slzZj2nYpp9q2PrkH6n9-11">
          <mxCell style="html=1;overflow=block;blockSpacing=1;whiteSpace=wrap;;whiteSpace=wrap;fontSize=27;fontColor=#333333;align=center;spacing=7;strokeColor=#5e5e5e;strokeOpacity=100;fillOpacity=100;rounded=1;absoluteArcSize=1;arcSize=7;fillColor=#ffc374;strokeWidth=2;" vertex="1" parent="1">
            <mxGeometry x="-131" y="108" width="139" height="126" as="geometry" />
          </mxCell>
        </UserObject>
        <UserObject label="Post" lucidchartObjectId="5Z11ZcP1FELY" id="slzZj2nYpp9q2PrkH6n9-12">
          <mxCell style="html=1;overflow=block;blockSpacing=1;whiteSpace=wrap;;whiteSpace=wrap;fontSize=27;fontColor=#333333;align=center;spacing=7;strokeColor=#5e5e5e;strokeOpacity=100;fillOpacity=100;rounded=1;absoluteArcSize=1;arcSize=7;fillColor=#ffc374;strokeWidth=2;" vertex="1" parent="1">
            <mxGeometry x="367" y="554" width="139" height="126" as="geometry" />
          </mxCell>
        </UserObject>
        <UserObject label="Commento" lucidchartObjectId="5Z11oSnabF5H" id="slzZj2nYpp9q2PrkH6n9-13">
          <mxCell style="html=1;overflow=block;blockSpacing=1;whiteSpace=wrap;;whiteSpace=wrap;fontSize=27;fontColor=#333333;align=center;spacing=7;strokeColor=#5e5e5e;strokeOpacity=100;fillOpacity=100;rounded=1;absoluteArcSize=1;arcSize=7;fillColor=#ffc374;strokeWidth=2;" vertex="1" parent="1">
            <mxGeometry x="285" y="973" width="139" height="126" as="geometry" />
          </mxCell>
        </UserObject>
        <UserObject label="Creazione" lucidchartObjectId="5Z11Syj31W8f" id="slzZj2nYpp9q2PrkH6n9-14">
          <mxCell style="html=1;overflow=block;blockSpacing=1;whiteSpace=wrap;rhombus;whiteSpace=wrap;fontSize=19;fontColor=#333333;align=center;spacing=3;strokeColor=#5e5e5e;strokeOpacity=100;fillOpacity=100;rounded=1;absoluteArcSize=1;arcSize=7;fillColor=#ffeca9;strokeWidth=2;" vertex="1" parent="1">
            <mxGeometry x="-190" y="449" width="139" height="72" as="geometry" />
          </mxCell>
        </UserObject>
        <UserObject label="VotoPost" lucidchartObjectId="5Z11PgHP7o6r" id="slzZj2nYpp9q2PrkH6n9-15">
          <mxCell style="html=1;overflow=block;blockSpacing=1;whiteSpace=wrap;rhombus;whiteSpace=wrap;fontSize=19;fontColor=#333333;align=center;spacing=3;strokeColor=#5e5e5e;strokeOpacity=100;fillOpacity=100;rounded=1;absoluteArcSize=1;arcSize=7;fillColor=#ffeca9;strokeWidth=2;" vertex="1" parent="1">
            <mxGeometry x="92" y="636" width="173" height="72" as="geometry" />
          </mxCell>
        </UserObject>
        <UserObject label="Scrive" lucidchartObjectId="5Z11AduAvgHk" id="slzZj2nYpp9q2PrkH6n9-16">
          <mxCell style="html=1;overflow=block;blockSpacing=1;whiteSpace=wrap;rhombus;whiteSpace=wrap;fontSize=19;fontColor=#333333;align=center;spacing=3;strokeColor=#5e5e5e;strokeOpacity=100;fillOpacity=100;rounded=1;absoluteArcSize=1;arcSize=7;fillColor=#ffeca9;strokeWidth=2;" vertex="1" parent="1">
            <mxGeometry x="80.5" y="724" width="173" height="72" as="geometry" />
          </mxCell>
        </UserObject>
        <UserObject label="" lucidchartObjectId="5Z11izssXkuJ" id="slzZj2nYpp9q2PrkH6n9-17">
          <mxCell style="html=1;jettySize=18;whiteSpace=wrap;fontSize=11;strokeColor=#5E5E5E;rounded=1;arcSize=12;startArrow=none;;endArrow=block;endFill=1;;exitX=0.006;exitY=0.5;exitPerimeter=0;entryX=1;entryY=0.75;entryDx=0;entryDy=0;" edge="1" parent="1" source="slzZj2nYpp9q2PrkH6n9-16" target="slzZj2nYpp9q2PrkH6n9-10">
            <mxGeometry width="100" height="100" relative="1" as="geometry" />
          </mxCell>
        </UserObject>
        <UserObject label="" lucidchartObjectId="5Z11i5Vyu13C" id="slzZj2nYpp9q2PrkH6n9-18">
          <mxCell style="html=1;jettySize=18;whiteSpace=wrap;fontSize=11;strokeColor=#5E5E5E;rounded=1;arcSize=12;edgeStyle=orthogonalEdgeStyle;startArrow=none;;endArrow=block;endFill=1;;exitX=0.006;exitY=0.5;exitPerimeter=0;entryX=1.005;entryY=0.146;entryPerimeter=0;" edge="1" parent="1" source="slzZj2nYpp9q2PrkH6n9-15" target="slzZj2nYpp9q2PrkH6n9-10">
            <mxGeometry width="100" height="100" relative="1" as="geometry">
              <Array as="points" />
            </mxGeometry>
          </mxCell>
        </UserObject>
        <UserObject label="Comprende" lucidchartObjectId="5Z11DL2pK7IQ" id="slzZj2nYpp9q2PrkH6n9-19">
          <mxCell style="html=1;overflow=block;blockSpacing=1;whiteSpace=wrap;rhombus;whiteSpace=wrap;fontSize=19;fontColor=#333333;align=center;spacing=3;strokeColor=#5e5e5e;strokeOpacity=100;fillOpacity=100;rounded=1;absoluteArcSize=1;arcSize=7;fillColor=#ffeca9;strokeWidth=2;" vertex="1" parent="1">
            <mxGeometry x="157" y="145" width="139" height="72" as="geometry" />
          </mxCell>
        </UserObject>
        <UserObject label="Riceve" lucidchartObjectId="5Z11WP3Co58E" id="slzZj2nYpp9q2PrkH6n9-20">
          <mxCell style="html=1;overflow=block;blockSpacing=1;whiteSpace=wrap;rhombus;whiteSpace=wrap;fontSize=19;fontColor=#333333;align=center;spacing=3;strokeColor=#5e5e5e;strokeOpacity=100;fillOpacity=100;rounded=1;absoluteArcSize=1;arcSize=7;fillColor=#ffeca9;strokeWidth=2;" vertex="1" parent="1">
            <mxGeometry x="285" y="830" width="139" height="72" as="geometry" />
          </mxCell>
        </UserObject>
        <UserObject label="" lucidchartObjectId="5Z11U962jJ6L" id="slzZj2nYpp9q2PrkH6n9-21">
          <mxCell style="html=1;jettySize=18;whiteSpace=wrap;fontSize=11;strokeColor=#5E5E5E;rounded=1;arcSize=12;edgeStyle=orthogonalEdgeStyle;startArrow=none;;endArrow=block;endFill=1;;exitX=0.5;exitY=0.002;exitPerimeter=0;entryX=0.244;entryY=1.007;entryPerimeter=0;" edge="1" parent="1" source="slzZj2nYpp9q2PrkH6n9-20" target="slzZj2nYpp9q2PrkH6n9-12">
            <mxGeometry width="100" height="100" relative="1" as="geometry">
              <Array as="points" />
            </mxGeometry>
          </mxCell>
        </UserObject>
        <UserObject label="" lucidchartObjectId="5Z11_2pyLblf" id="slzZj2nYpp9q2PrkH6n9-22">
          <mxCell style="html=1;jettySize=18;whiteSpace=wrap;fontSize=11;strokeColor=#5E5E5E;rounded=1;arcSize=12;edgeStyle=orthogonalEdgeStyle;startArrow=none;;endArrow=block;endFill=1;;exitX=0.5;exitY=0.998;exitPerimeter=0;entryX=0.5;entryY=-0.007;entryPerimeter=0;" edge="1" parent="1" source="slzZj2nYpp9q2PrkH6n9-20" target="slzZj2nYpp9q2PrkH6n9-13">
            <mxGeometry width="100" height="100" relative="1" as="geometry">
              <Array as="points" />
            </mxGeometry>
          </mxCell>
        </UserObject>
        <UserObject label="VotoCommento" lucidchartObjectId="5Z11uRqC.l_0" id="slzZj2nYpp9q2PrkH6n9-23">
          <mxCell style="html=1;overflow=block;blockSpacing=1;whiteSpace=wrap;rhombus;whiteSpace=wrap;fontSize=19;fontColor=#333333;align=center;spacing=3;strokeColor=#5e5e5e;strokeOpacity=100;fillOpacity=100;rounded=1;absoluteArcSize=1;arcSize=7;fillColor=#ffeca9;strokeWidth=2;" vertex="1" parent="1">
            <mxGeometry x="55" y="954" width="190" height="72" as="geometry" />
          </mxCell>
        </UserObject>
        <UserObject label="Aggiunta" lucidchartObjectId="5Z11qQdxa9NC" id="slzZj2nYpp9q2PrkH6n9-24">
          <mxCell style="html=1;overflow=block;blockSpacing=1;whiteSpace=wrap;rhombus;whiteSpace=wrap;fontSize=19;fontColor=#333333;align=center;spacing=3;strokeColor=#5e5e5e;strokeOpacity=100;fillOpacity=100;rounded=1;absoluteArcSize=1;arcSize=7;fillColor=#ffeca9;strokeWidth=2;" vertex="1" parent="1">
            <mxGeometry x="96" y="1046" width="142" height="72" as="geometry" />
          </mxCell>
        </UserObject>
        <UserObject label="" lucidchartObjectId="5Z11gAFnR2~T" id="slzZj2nYpp9q2PrkH6n9-25">
          <mxCell style="html=1;jettySize=18;whiteSpace=wrap;fontSize=11;strokeColor=#5E5E5E;rounded=1;arcSize=12;edgeStyle=orthogonalEdgeStyle;startArrow=none;;endArrow=block;endFill=1;;exitX=0.003;exitY=0.5;exitPerimeter=0;" edge="1" parent="1" source="slzZj2nYpp9q2PrkH6n9-24">
            <mxGeometry width="100" height="100" relative="1" as="geometry">
              <Array as="points">
                <mxPoint x="-20" y="1082" />
              </Array>
              <mxPoint x="-20" y="797" as="targetPoint" />
            </mxGeometry>
          </mxCell>
        </UserObject>
        <UserObject label="" lucidchartObjectId="5Z11UxAj89NH" id="slzZj2nYpp9q2PrkH6n9-26">
          <mxCell style="html=1;jettySize=18;whiteSpace=wrap;fontSize=11;strokeColor=#5E5E5E;rounded=1;arcSize=12;edgeStyle=orthogonalEdgeStyle;startArrow=none;;endArrow=block;endFill=1;;exitX=0.997;exitY=0.5;exitPerimeter=0;" edge="1" parent="1" source="slzZj2nYpp9q2PrkH6n9-24">
            <mxGeometry width="100" height="100" relative="1" as="geometry">
              <Array as="points" />
              <mxPoint x="285" y="1082" as="targetPoint" />
            </mxGeometry>
          </mxCell>
        </UserObject>
        <UserObject label="Risposta" lucidchartObjectId="5Z110mMXI5NF" id="slzZj2nYpp9q2PrkH6n9-27">
          <mxCell style="html=1;overflow=block;blockSpacing=1;whiteSpace=wrap;rhombus;whiteSpace=wrap;fontSize=19;fontColor=#333333;align=center;spacing=3;strokeColor=#5e5e5e;strokeOpacity=100;fillOpacity=100;rounded=1;absoluteArcSize=1;arcSize=7;fillColor=#ffeca9;strokeWidth=2;" vertex="1" parent="1">
            <mxGeometry x="424" y="1100" width="139" height="75" as="geometry" />
          </mxCell>
        </UserObject>
        <UserObject label="" lucidchartObjectId="5Z11sGWukUJt" id="slzZj2nYpp9q2PrkH6n9-28">
          <mxCell style="html=1;jettySize=18;whiteSpace=wrap;fontSize=11;strokeColor=#5E5E5E;rounded=1;arcSize=12;edgeStyle=orthogonalEdgeStyle;startArrow=none;;endArrow=block;endFill=1;;exitX=0.5;exitY=0.002;exitPerimeter=0;entryX=1.006;entryY=0.5;entryPerimeter=0;" edge="1" parent="1" source="slzZj2nYpp9q2PrkH6n9-27" target="slzZj2nYpp9q2PrkH6n9-13">
            <mxGeometry width="100" height="100" relative="1" as="geometry">
              <Array as="points" />
            </mxGeometry>
          </mxCell>
        </UserObject>
        <UserObject label="Media" lucidchartObjectId="5Z11tEEgMzp." id="slzZj2nYpp9q2PrkH6n9-29">
          <mxCell style="html=1;overflow=block;blockSpacing=1;whiteSpace=wrap;;whiteSpace=wrap;fontSize=27;fontColor=#333333;align=center;spacing=3;strokeColor=#5e5e5e;strokeOpacity=100;fillOpacity=100;rounded=1;absoluteArcSize=1;arcSize=7;fillColor=#ffc374;strokeWidth=2;" vertex="1" parent="1">
            <mxGeometry x="787" y="534" width="139" height="126" as="geometry" />
          </mxCell>
        </UserObject>
        <UserObject label="Contiene" lucidchartObjectId="5Z11jG~nFGgs" id="slzZj2nYpp9q2PrkH6n9-30">
          <mxCell style="html=1;overflow=block;blockSpacing=1;whiteSpace=wrap;rhombus;whiteSpace=wrap;fontSize=19;fontColor=#333333;align=center;spacing=3;strokeColor=#5e5e5e;strokeOpacity=100;fillOpacity=100;rounded=1;absoluteArcSize=1;arcSize=7;fillColor=#ffeca9;strokeWidth=2;" vertex="1" parent="1">
            <mxGeometry x="580" y="570" width="134" height="73" as="geometry" />
          </mxCell>
        </UserObject>
        <UserObject label="" lucidchartObjectId="5Z11-9_bKaWF" id="slzZj2nYpp9q2PrkH6n9-31">
          <mxCell style="html=1;jettySize=18;whiteSpace=wrap;fontSize=11;strokeColor=#5E5E5E;rounded=1;arcSize=12;edgeStyle=orthogonalEdgeStyle;startArrow=none;;endArrow=block;endFill=1;;exitX=0.008;exitY=0.5;exitPerimeter=0;entryX=1.006;entryY=0.414;entryPerimeter=0;" edge="1" parent="1" source="slzZj2nYpp9q2PrkH6n9-30" target="slzZj2nYpp9q2PrkH6n9-12">
            <mxGeometry width="100" height="100" relative="1" as="geometry">
              <Array as="points" />
            </mxGeometry>
          </mxCell>
        </UserObject>
        <UserObject label="Ban" lucidchartObjectId="5Z11-qL5h7Zo" id="slzZj2nYpp9q2PrkH6n9-32">
          <mxCell style="html=1;overflow=block;blockSpacing=1;whiteSpace=wrap;;whiteSpace=wrap;fontSize=27;fontColor=#333333;align=center;spacing=7;strokeColor=#5e5e5e;strokeOpacity=100;fillOpacity=100;rounded=1;absoluteArcSize=1;arcSize=7;fillColor=#ffc374;strokeWidth=2;" vertex="1" parent="1">
            <mxGeometry x="-723" y="252" width="139" height="126" as="geometry" />
          </mxCell>
        </UserObject>
        <UserObject label="Moderatore" lucidchartObjectId="5Z11tU0m_Kim" id="slzZj2nYpp9q2PrkH6n9-33">
          <mxCell style="html=1;overflow=block;blockSpacing=1;whiteSpace=wrap;;whiteSpace=wrap;fontSize=24;fontColor=#333333;align=center;spacing=7;strokeColor=#5e5e5e;strokeOpacity=100;fillOpacity=100;rounded=1;absoluteArcSize=1;arcSize=7;fillColor=#ffc374;strokeWidth=2;" vertex="1" parent="1">
            <mxGeometry x="-827" y="667" width="139" height="126" as="geometry" />
          </mxCell>
        </UserObject>
        <UserObject label="Effettua" lucidchartObjectId="5Z11YIwC4oJA" id="slzZj2nYpp9q2PrkH6n9-34">
          <mxCell style="html=1;overflow=block;blockSpacing=1;whiteSpace=wrap;rhombus;whiteSpace=wrap;fontSize=19;fontColor=#333333;align=center;spacing=3;strokeColor=#5e5e5e;strokeOpacity=100;fillOpacity=100;rounded=1;absoluteArcSize=1;arcSize=7;fillColor=#ffeca9;strokeWidth=2;" vertex="1" parent="1">
            <mxGeometry x="-723" y="521" width="139" height="72" as="geometry" />
          </mxCell>
        </UserObject>
        <UserObject label="" lucidchartObjectId="5Z111G0WaBB_" id="slzZj2nYpp9q2PrkH6n9-35">
          <mxCell style="html=1;jettySize=18;whiteSpace=wrap;fontSize=11;strokeColor=#5E5E5E;rounded=1;arcSize=12;edgeStyle=orthogonalEdgeStyle;startArrow=none;;endArrow=block;endFill=1;;exitX=0.992;exitY=0.5;exitPerimeter=0;entryX=-0.006;entryY=0.57;entryPerimeter=0;" edge="1" parent="1" source="slzZj2nYpp9q2PrkH6n9-30" target="slzZj2nYpp9q2PrkH6n9-29">
            <mxGeometry width="100" height="100" relative="1" as="geometry">
              <Array as="points" />
            </mxGeometry>
          </mxCell>
        </UserObject>
        <UserObject label="Svolge" lucidchartObjectId="5Z119F6c1oJ4" id="slzZj2nYpp9q2PrkH6n9-36">
          <mxCell style="html=1;overflow=block;blockSpacing=1;whiteSpace=wrap;rhombus;whiteSpace=wrap;fontSize=19;fontColor=#333333;align=center;spacing=3;strokeColor=#5e5e5e;strokeOpacity=100;fillOpacity=100;rounded=1;absoluteArcSize=1;arcSize=7;fillColor=#ffeca9;strokeWidth=2;" vertex="1" parent="1">
            <mxGeometry x="-450" y="716" width="139" height="72" as="geometry" />
          </mxCell>
        </UserObject>
        <UserObject label="Subisce" lucidchartObjectId="5Z118ISZ76tE" id="slzZj2nYpp9q2PrkH6n9-37">
          <mxCell style="html=1;overflow=block;blockSpacing=1;whiteSpace=wrap;rhombus;whiteSpace=wrap;fontSize=19;fontColor=#333333;align=center;spacing=3;strokeColor=#5e5e5e;strokeOpacity=100;fillOpacity=100;rounded=1;absoluteArcSize=1;arcSize=7;fillColor=#ffeca9;strokeWidth=2;" vertex="1" parent="1">
            <mxGeometry x="-517" y="659" width="137" height="72" as="geometry" />
          </mxCell>
        </UserObject>
        <UserObject label="" lucidchartObjectId="5Z11K42ZWmKD" id="slzZj2nYpp9q2PrkH6n9-38">
          <mxCell style="html=1;jettySize=18;whiteSpace=wrap;fontSize=11;strokeColor=#5E5E5E;rounded=1;arcSize=12;edgeStyle=orthogonalEdgeStyle;startArrow=none;;endArrow=block;endFill=1;;exitX=0.008;exitY=0.5;exitPerimeter=0;entryX=1.006;entryY=0.273;entryPerimeter=0;" edge="1" parent="1" source="slzZj2nYpp9q2PrkH6n9-37" target="slzZj2nYpp9q2PrkH6n9-32">
            <mxGeometry width="100" height="100" relative="1" as="geometry">
              <Array as="points">
                <mxPoint x="-560" y="694" />
                <mxPoint x="-560" y="286" />
              </Array>
            </mxGeometry>
          </mxCell>
        </UserObject>
        <UserObject label="Possiede" lucidchartObjectId="5Z11ToOh66SS" id="slzZj2nYpp9q2PrkH6n9-39">
          <mxCell style="html=1;overflow=block;blockSpacing=1;whiteSpace=wrap;rhombus;whiteSpace=wrap;fontSize=19;fontColor=#333333;align=center;spacing=3;strokeColor=#5e5e5e;strokeOpacity=100;fillOpacity=100;rounded=1;absoluteArcSize=1;arcSize=7;fillColor=#ffeca9;strokeWidth=2;" vertex="1" parent="1">
            <mxGeometry x="-419.5" y="4" width="139" height="72" as="geometry" />
          </mxCell>
        </UserObject>
        <UserObject label="Coinvolge" lucidchartObjectId="5Z11NZ_iXVaZ" id="slzZj2nYpp9q2PrkH6n9-40">
          <mxCell style="html=1;overflow=block;blockSpacing=1;whiteSpace=wrap;rhombus;whiteSpace=wrap;fontSize=19;fontColor=#333333;align=center;spacing=3;strokeColor=#5e5e5e;strokeOpacity=100;fillOpacity=100;rounded=1;absoluteArcSize=1;arcSize=7;fillColor=#ffeca9;strokeWidth=2;" vertex="1" parent="1">
            <mxGeometry x="-417.5" y="84" width="137" height="72" as="geometry" />
          </mxCell>
        </UserObject>
        <UserObject label="" lucidchartObjectId="5Z11xf0tmfcv" id="slzZj2nYpp9q2PrkH6n9-41">
          <mxCell style="html=1;jettySize=18;whiteSpace=wrap;fontSize=11;strokeColor=#5E5E5E;rounded=1;arcSize=12;edgeStyle=orthogonalEdgeStyle;startArrow=none;;endArrow=block;endFill=1;;exitX=0.008;exitY=0.5;exitPerimeter=0;" edge="1" parent="1" source="slzZj2nYpp9q2PrkH6n9-39">
            <mxGeometry width="100" height="100" relative="1" as="geometry">
              <Array as="points">
                <mxPoint x="-418" y="40" />
                <mxPoint x="-760" y="40" />
              </Array>
              <mxPoint x="-760" y="666" as="targetPoint" />
            </mxGeometry>
          </mxCell>
        </UserObject>
        <UserObject label="" lucidchartObjectId="5Z11qix6UHHO" id="slzZj2nYpp9q2PrkH6n9-42">
          <mxCell style="html=1;jettySize=18;whiteSpace=wrap;fontSize=11;strokeColor=#5E5E5E;rounded=1;arcSize=12;startArrow=none;;endArrow=block;endFill=1;;exitX=0.992;exitY=0.5;exitPerimeter=0;" edge="1" parent="1" source="slzZj2nYpp9q2PrkH6n9-40">
            <mxGeometry width="100" height="100" relative="1" as="geometry">
              <mxPoint x="-129" y="120" as="targetPoint" />
            </mxGeometry>
          </mxCell>
        </UserObject>
        <UserObject label="" lucidchartObjectId="5Z116_kDXXJ~" id="slzZj2nYpp9q2PrkH6n9-43">
          <mxCell style="html=1;jettySize=18;whiteSpace=wrap;fontSize=11;strokeColor=#5E5E5E;rounded=1;arcSize=12;startArrow=none;;endArrow=block;endFill=1;;exitX=0.008;exitY=0.5;exitPerimeter=0;entryX=1.006;entryY=0.571;entryPerimeter=0;" edge="1" parent="1" source="slzZj2nYpp9q2PrkH6n9-19" target="slzZj2nYpp9q2PrkH6n9-11">
            <mxGeometry width="100" height="100" relative="1" as="geometry" />
          </mxCell>
        </UserObject>
        <UserObject label="Feed" lucidchartObjectId="5Z11r3Dl_LUG" id="slzZj2nYpp9q2PrkH6n9-44">
          <mxCell style="html=1;overflow=block;blockSpacing=1;whiteSpace=wrap;;whiteSpace=wrap;fontSize=27;fontColor=#333333;align=center;spacing=7;strokeColor=#5e5e5e;strokeOpacity=100;fillOpacity=100;rounded=1;absoluteArcSize=1;arcSize=7;fillColor=#ffc374;strokeWidth=2;" vertex="1" parent="1">
            <mxGeometry x="-532" y="323" width="139" height="126" as="geometry" />
          </mxCell>
        </UserObject>
        <UserObject label="Compone" lucidchartObjectId="5Z11OJM.wt_c" id="slzZj2nYpp9q2PrkH6n9-45">
          <mxCell style="html=1;overflow=block;blockSpacing=1;whiteSpace=wrap;rhombus;whiteSpace=wrap;fontSize=19;fontColor=#333333;align=center;spacing=3;strokeColor=#5e5e5e;strokeOpacity=100;fillOpacity=100;rounded=1;absoluteArcSize=1;arcSize=7;fillColor=#ffeca9;strokeWidth=2;" vertex="1" parent="1">
            <mxGeometry x="-413" y="523" width="139" height="72" as="geometry" />
          </mxCell>
        </UserObject>
        <UserObject label="Include" lucidchartObjectId="5Z116CULyFv5" id="slzZj2nYpp9q2PrkH6n9-46">
          <mxCell style="html=1;overflow=block;blockSpacing=1;whiteSpace=wrap;rhombus;whiteSpace=wrap;fontSize=19;fontColor=#333333;align=center;spacing=3;strokeColor=#5e5e5e;strokeOpacity=100;fillOpacity=100;rounded=1;absoluteArcSize=1;arcSize=7;fillColor=#ffeca9;strokeWidth=2;" vertex="1" parent="1">
            <mxGeometry x="-422" y="181" width="157" height="72" as="geometry" />
          </mxCell>
        </UserObject>
        <UserObject label="" lucidchartObjectId="5Z11rAjo7-qb" id="slzZj2nYpp9q2PrkH6n9-47">
          <mxCell style="html=1;jettySize=18;whiteSpace=wrap;fontSize=11;strokeColor=#5E5E5E;rounded=1;arcSize=12;edgeStyle=orthogonalEdgeStyle;startArrow=none;;endArrow=block;endFill=1;;exitX=0.007;exitY=0.5;exitPerimeter=0;entryX=0.5;entryY=-0.007;entryPerimeter=0;" edge="1" parent="1" source="slzZj2nYpp9q2PrkH6n9-46" target="slzZj2nYpp9q2PrkH6n9-44">
            <mxGeometry width="100" height="100" relative="1" as="geometry">
              <Array as="points">
                <mxPoint x="-463" y="217" />
              </Array>
            </mxGeometry>
          </mxCell>
        </UserObject>
        <UserObject label="" lucidchartObjectId="5Z11dD4BgISq" id="slzZj2nYpp9q2PrkH6n9-48">
          <mxCell style="html=1;jettySize=18;whiteSpace=wrap;fontSize=11;strokeColor=#5E5E5E;rounded=1;arcSize=12;edgeStyle=orthogonalEdgeStyle;startArrow=none;;endArrow=block;endFill=1;;exitX=0.008;exitY=0.5;exitPerimeter=0;entryX=0.5;entryY=1.007;entryPerimeter=0;" edge="1" parent="1" source="slzZj2nYpp9q2PrkH6n9-45" target="slzZj2nYpp9q2PrkH6n9-44">
            <mxGeometry width="100" height="100" relative="1" as="geometry">
              <Array as="points">
                <mxPoint x="-462" y="559" />
              </Array>
            </mxGeometry>
          </mxCell>
        </UserObject>
        <UserObject label="Amicizia" lucidchartObjectId="5Z11pVs4XD9r" id="slzZj2nYpp9q2PrkH6n9-49">
          <mxCell style="html=1;overflow=block;blockSpacing=1;whiteSpace=wrap;rhombus;whiteSpace=wrap;fontSize=19;fontColor=#333333;align=center;spacing=3;strokeColor=#5e5e5e;strokeOpacity=100;fillOpacity=100;rounded=1;absoluteArcSize=1;arcSize=7;fillColor=#ffeca9;strokeWidth=2;" vertex="1" parent="1">
            <mxGeometry x="9" y="521" width="139" height="75" as="geometry" />
          </mxCell>
        </UserObject>
        <UserObject label="" lucidchartObjectId="5Z11gbB91ovn" id="slzZj2nYpp9q2PrkH6n9-50">
          <mxCell style="html=1;jettySize=18;whiteSpace=wrap;fontSize=11;strokeColor=#5E5E5E;rounded=1;arcSize=12;edgeStyle=orthogonalEdgeStyle;startArrow=none;;endArrow=block;endFill=1;;exitX=0.5;exitY=0.998;exitPerimeter=0;entryX=1.005;entryY=0.045;entryPerimeter=0;" edge="1" parent="1" source="slzZj2nYpp9q2PrkH6n9-49" target="slzZj2nYpp9q2PrkH6n9-10">
            <mxGeometry width="100" height="100" relative="1" as="geometry">
              <Array as="points" />
            </mxGeometry>
          </mxCell>
        </UserObject>
        <UserObject label="" lucidchartObjectId="5Z11EI6WQiYW" id="slzZj2nYpp9q2PrkH6n9-51">
          <mxCell style="html=1;jettySize=18;whiteSpace=wrap;fontSize=11;strokeColor=#5E5E5E;rounded=1;arcSize=12;edgeStyle=orthogonalEdgeStyle;startArrow=none;;endArrow=block;endFill=1;;exitX=0.008;exitY=0.5;exitPerimeter=0;entryX=0.906;entryY=-0.006;entryPerimeter=0;" edge="1" parent="1" source="slzZj2nYpp9q2PrkH6n9-49" target="slzZj2nYpp9q2PrkH6n9-10">
            <mxGeometry width="100" height="100" relative="1" as="geometry">
              <Array as="points">
                <mxPoint x="-7" y="559" />
              </Array>
            </mxGeometry>
          </mxCell>
        </UserObject>
        <UserObject label="Award" lucidchartObjectId="5Z11_9Wty6S1" id="slzZj2nYpp9q2PrkH6n9-52">
          <mxCell style="html=1;overflow=block;blockSpacing=1;whiteSpace=wrap;;whiteSpace=wrap;fontSize=27;fontColor=#333333;align=center;spacing=3;strokeColor=#5e5e5e;strokeOpacity=100;fillOpacity=100;rounded=1;absoluteArcSize=1;arcSize=7;fillColor=#ffc374;strokeWidth=2;" vertex="1" parent="1">
            <mxGeometry x="261" y="1216" width="139" height="126" as="geometry" />
          </mxCell>
        </UserObject>
        <UserObject label="Assegna" lucidchartObjectId="5Z11iGa5ESLG" id="slzZj2nYpp9q2PrkH6n9-53">
          <mxCell style="html=1;overflow=block;blockSpacing=1;whiteSpace=wrap;rhombus;whiteSpace=wrap;fontSize=19;fontColor=#333333;align=center;spacing=3;strokeColor=#5e5e5e;strokeOpacity=100;fillOpacity=100;rounded=1;absoluteArcSize=1;arcSize=7;fillColor=#ffeca9;strokeWidth=2;" vertex="1" parent="1">
            <mxGeometry x="39" y="1239" width="139" height="81" as="geometry" />
          </mxCell>
        </UserObject>
        <UserObject label="" lucidchartObjectId="5Z11sIX_qyNL" id="slzZj2nYpp9q2PrkH6n9-54">
          <mxCell style="html=1;jettySize=18;whiteSpace=wrap;fontSize=11;strokeColor=#5E5E5E;rounded=1;arcSize=12;edgeStyle=orthogonalEdgeStyle;startArrow=none;;endArrow=block;endFill=1;;entryX=-0.006;entryY=0.5;entryPerimeter=0;exitX=1;exitY=0.5;exitDx=0;exitDy=0;" edge="1" parent="1" source="slzZj2nYpp9q2PrkH6n9-53" target="slzZj2nYpp9q2PrkH6n9-52">
            <mxGeometry width="100" height="100" relative="1" as="geometry">
              <Array as="points">
                <mxPoint x="200" y="1279" />
              </Array>
              <mxPoint x="180" y="1279" as="sourcePoint" />
            </mxGeometry>
          </mxCell>
        </UserObject>
        <UserObject label="Ottiene" lucidchartObjectId="5Z11CagnsyLX" id="slzZj2nYpp9q2PrkH6n9-55">
          <mxCell style="html=1;overflow=block;blockSpacing=1;whiteSpace=wrap;rhombus;whiteSpace=wrap;fontSize=19;fontColor=#333333;align=center;spacing=3;strokeColor=#5e5e5e;strokeOpacity=100;fillOpacity=100;rounded=1;absoluteArcSize=1;arcSize=7;fillColor=#ffeca9;strokeWidth=2;" vertex="1" parent="1">
            <mxGeometry x="503" y="1238" width="192" height="81" as="geometry" />
          </mxCell>
        </UserObject>
        <UserObject label="" lucidchartObjectId="5Z11KuU5c5hF" id="slzZj2nYpp9q2PrkH6n9-56">
          <mxCell style="html=1;jettySize=18;whiteSpace=wrap;fontSize=11;strokeColor=#5E5E5E;rounded=1;arcSize=12;edgeStyle=orthogonalEdgeStyle;startArrow=none;;endArrow=block;endFill=1;;exitX=0.5;exitY=0;exitPerimeter=0;entryX=1.006;entryY=0.166;entryPerimeter=0;" edge="1" parent="1" source="slzZj2nYpp9q2PrkH6n9-55" target="slzZj2nYpp9q2PrkH6n9-13">
            <mxGeometry width="100" height="100" relative="1" as="geometry">
              <Array as="points" />
            </mxGeometry>
          </mxCell>
        </UserObject>
        <UserObject label="" lucidchartObjectId="5Z11bfRCtRuw" id="slzZj2nYpp9q2PrkH6n9-57">
          <mxCell style="html=1;jettySize=18;whiteSpace=wrap;fontSize=11;strokeColor=#5E5E5E;rounded=1;arcSize=12;edgeStyle=orthogonalEdgeStyle;startArrow=none;;endArrow=block;endFill=1;;exitX=0.5;exitY=0.002;exitPerimeter=0;entryX=0.5;entryY=1.007;entryPerimeter=0;" edge="1" parent="1" source="slzZj2nYpp9q2PrkH6n9-34" target="slzZj2nYpp9q2PrkH6n9-32">
            <mxGeometry width="100" height="100" relative="1" as="geometry">
              <Array as="points" />
            </mxGeometry>
          </mxCell>
        </UserObject>
        <UserObject label="" lucidchartObjectId="5Z11n4iT4uZ4" id="slzZj2nYpp9q2PrkH6n9-58">
          <mxCell style="html=1;jettySize=18;whiteSpace=wrap;fontSize=11;strokeColor=#5E5E5E;rounded=1;arcSize=12;edgeStyle=orthogonalEdgeStyle;startArrow=none;;endArrow=block;endFill=1;;exitX=0.992;exitY=0.5;exitPerimeter=0;entryX=-0.005;entryY=0.143;entryPerimeter=0;" edge="1" parent="1" source="slzZj2nYpp9q2PrkH6n9-45" target="slzZj2nYpp9q2PrkH6n9-10">
            <mxGeometry width="100" height="100" relative="1" as="geometry">
              <Array as="points">
                <mxPoint x="-275" y="559" />
                <mxPoint x="-240" y="559" />
                <mxPoint x="-240" y="672" />
              </Array>
            </mxGeometry>
          </mxCell>
        </UserObject>
        <UserObject label="" lucidchartObjectId="5Z112bqZWkyQ" id="slzZj2nYpp9q2PrkH6n9-59">
          <mxCell style="html=1;jettySize=18;whiteSpace=wrap;fontSize=11;strokeColor=#5E5E5E;rounded=1;arcSize=12;edgeStyle=orthogonalEdgeStyle;startArrow=none;;endArrow=block;endFill=1;;exitX=0.992;exitY=0.5;exitPerimeter=0;entryX=0.5;entryY=-0.007;entryPerimeter=0;" edge="1" parent="1" source="slzZj2nYpp9q2PrkH6n9-39" target="slzZj2nYpp9q2PrkH6n9-11">
            <mxGeometry width="100" height="100" relative="1" as="geometry">
              <Array as="points" />
            </mxGeometry>
          </mxCell>
        </UserObject>
        <UserObject label="" lucidchartObjectId="5Z1130ydW7bh" id="slzZj2nYpp9q2PrkH6n9-60">
          <mxCell style="html=1;jettySize=18;whiteSpace=wrap;fontSize=11;strokeColor=#5E5E5E;rounded=1;arcSize=12;startArrow=none;;endArrow=block;endFill=1;;exitX=0.993;exitY=0.5;exitPerimeter=0;entryX=-0.006;entryY=0.857;entryPerimeter=0;" edge="1" parent="1" source="slzZj2nYpp9q2PrkH6n9-46" target="slzZj2nYpp9q2PrkH6n9-11">
            <mxGeometry width="100" height="100" relative="1" as="geometry" />
          </mxCell>
        </UserObject>
        <UserObject label="Iscrizione" lucidchartObjectId="5Z11dhynnVAx" id="slzZj2nYpp9q2PrkH6n9-61">
          <mxCell style="html=1;overflow=block;blockSpacing=1;whiteSpace=wrap;rhombus;whiteSpace=wrap;fontSize=19;fontColor=#333333;align=center;spacing=3;strokeColor=#5e5e5e;strokeOpacity=100;fillOpacity=100;rounded=1;absoluteArcSize=1;arcSize=7;fillColor=#ffeca9;strokeWidth=2;" vertex="1" parent="1">
            <mxGeometry x="-110" y="361.5" width="139" height="72" as="geometry" />
          </mxCell>
        </UserObject>
        <UserObject label="" lucidchartObjectId="5Z11XeuHcFP2" id="slzZj2nYpp9q2PrkH6n9-62">
          <mxCell style="html=1;jettySize=18;whiteSpace=wrap;fontSize=11;strokeColor=#5E5E5E;rounded=1;arcSize=12;startArrow=none;;endArrow=block;endFill=1;;exitX=0.5;exitY=0.998;exitPerimeter=0;" edge="1" parent="1" source="slzZj2nYpp9q2PrkH6n9-61">
            <mxGeometry width="100" height="100" relative="1" as="geometry">
              <mxPoint x="-40" y="650" as="targetPoint" />
            </mxGeometry>
          </mxCell>
        </UserObject>
        <UserObject label="" lucidchartObjectId="5Z11.4Il8FOT" id="slzZj2nYpp9q2PrkH6n9-63">
          <mxCell style="html=1;jettySize=18;whiteSpace=wrap;fontSize=11;strokeColor=#5E5E5E;rounded=1;arcSize=12;startArrow=none;;endArrow=block;endFill=1;;exitX=0.5;exitY=0.998;exitPerimeter=0;" edge="1" parent="1" source="slzZj2nYpp9q2PrkH6n9-14">
            <mxGeometry width="100" height="100" relative="1" as="geometry">
              <mxPoint x="-120" y="650" as="targetPoint" />
            </mxGeometry>
          </mxCell>
        </UserObject>
        <UserObject label="" lucidchartObjectId="5Z11WpmmcvCm" id="slzZj2nYpp9q2PrkH6n9-64">
          <mxCell style="html=1;jettySize=18;whiteSpace=wrap;fontSize=11;strokeColor=#5E5E5E;rounded=1;arcSize=12;startArrow=none;;endArrow=block;endFill=1;;exitX=0.5;exitY=0.002;exitPerimeter=0;" edge="1" parent="1" source="slzZj2nYpp9q2PrkH6n9-14">
            <mxGeometry width="100" height="100" relative="1" as="geometry">
              <mxPoint x="-120" y="235" as="targetPoint" />
            </mxGeometry>
          </mxCell>
        </UserObject>
        <UserObject label="" lucidchartObjectId="5Z11hPHnX-.g" id="slzZj2nYpp9q2PrkH6n9-65">
          <mxCell style="html=1;jettySize=18;whiteSpace=wrap;fontSize=11;strokeColor=#5E5E5E;rounded=1;arcSize=12;startArrow=none;;endArrow=block;endFill=1;;exitX=0.5;exitY=0.002;exitPerimeter=0;entryX=0.653;entryY=0.994;entryPerimeter=0;entryDx=0;entryDy=0;" edge="1" parent="1" source="slzZj2nYpp9q2PrkH6n9-61" target="slzZj2nYpp9q2PrkH6n9-11">
            <mxGeometry width="100" height="100" relative="1" as="geometry" />
          </mxCell>
        </UserObject>
        <UserObject label="Messaggio" lucidchartObjectId="5Z11IzBW45~f" id="slzZj2nYpp9q2PrkH6n9-66">
          <mxCell style="html=1;overflow=block;blockSpacing=1;whiteSpace=wrap;;whiteSpace=wrap;fontSize=27;fontColor=#333333;align=center;spacing=3;strokeColor=#5e5e5e;strokeOpacity=100;fillOpacity=100;rounded=1;absoluteArcSize=1;arcSize=7;fillColor=#ffc374;strokeWidth=2;" vertex="1" parent="1">
            <mxGeometry x="-629" y="928" width="139" height="126" as="geometry" />
          </mxCell>
        </UserObject>
        <UserObject label="" lucidchartObjectId="5Z11bzBFjJWu" id="slzZj2nYpp9q2PrkH6n9-67">
          <mxCell style="html=1;jettySize=18;whiteSpace=wrap;fontSize=11;strokeColor=#5E5E5E;rounded=1;arcSize=12;edgeStyle=orthogonalEdgeStyle;startArrow=none;;endArrow=block;endFill=1;;exitX=0.003;exitY=0.5;exitPerimeter=0;entryX=0.947;entryY=0.998;entryPerimeter=0;entryDx=0;entryDy=0;" edge="1" parent="1" source="slzZj2nYpp9q2PrkH6n9-23" target="slzZj2nYpp9q2PrkH6n9-10">
            <mxGeometry width="100" height="100" relative="1" as="geometry">
              <Array as="points">
                <mxPoint x="56" y="991" />
                <mxPoint y="991" />
              </Array>
            </mxGeometry>
          </mxCell>
        </UserObject>
        <UserObject label="" lucidchartObjectId="5Z11lgrL3pck" id="slzZj2nYpp9q2PrkH6n9-68">
          <mxCell style="html=1;jettySize=18;whiteSpace=wrap;fontSize=11;strokeColor=#5E5E5E;rounded=1;arcSize=12;edgeStyle=orthogonalEdgeStyle;startArrow=none;;endArrow=block;endFill=1;;exitX=0.997;exitY=0.5;exitPerimeter=0;entryX=-0.006;entryY=0.138;entryPerimeter=0;" edge="1" parent="1" source="slzZj2nYpp9q2PrkH6n9-23" target="slzZj2nYpp9q2PrkH6n9-13">
            <mxGeometry width="100" height="100" relative="1" as="geometry">
              <Array as="points" />
            </mxGeometry>
          </mxCell>
        </UserObject>
        <UserObject label="Invia" lucidchartObjectId="5Z11-Xl3Ivpf" id="slzZj2nYpp9q2PrkH6n9-69">
          <mxCell style="html=1;overflow=block;blockSpacing=1;whiteSpace=wrap;rhombus;whiteSpace=wrap;fontSize=19;fontColor=#333333;align=center;spacing=3;strokeColor=#5e5e5e;strokeOpacity=100;fillOpacity=100;rounded=1;absoluteArcSize=1;arcSize=7;fillColor=#ffeca9;strokeWidth=2;" vertex="1" parent="1">
            <mxGeometry x="-298.5" y="1005" width="137" height="72" as="geometry" />
          </mxCell>
        </UserObject>
        <UserObject label="Riceve" lucidchartObjectId="5Z114LU4GTxU" id="slzZj2nYpp9q2PrkH6n9-70">
          <mxCell style="html=1;overflow=block;blockSpacing=1;whiteSpace=wrap;rhombus;whiteSpace=wrap;fontSize=19;fontColor=#333333;align=center;spacing=3;strokeColor=#5e5e5e;strokeOpacity=100;fillOpacity=100;rounded=1;absoluteArcSize=1;arcSize=7;fillColor=#ffeca9;strokeWidth=2;" vertex="1" parent="1">
            <mxGeometry x="-381.5" y="909" width="137" height="72" as="geometry" />
          </mxCell>
        </UserObject>
        <UserObject label="" lucidchartObjectId="5Z11d4.0gO8H" id="slzZj2nYpp9q2PrkH6n9-71">
          <mxCell style="html=1;jettySize=18;whiteSpace=wrap;fontSize=11;strokeColor=#5E5E5E;rounded=1;arcSize=12;edgeStyle=orthogonalEdgeStyle;startArrow=none;;endArrow=block;endFill=1;;exitX=0.008;exitY=0.5;exitPerimeter=0;entryX=0.717;entryY=1.007;entryDx=0;entryDy=0;entryPerimeter=0;" edge="1" parent="1" source="slzZj2nYpp9q2PrkH6n9-53" target="slzZj2nYpp9q2PrkH6n9-10">
            <mxGeometry width="100" height="100" relative="1" as="geometry">
              <Array as="points">
                <mxPoint x="-40" y="1279" />
              </Array>
              <mxPoint x="-50" y="797" as="targetPoint" />
            </mxGeometry>
          </mxCell>
        </UserObject>
        <UserObject label="" lucidchartObjectId="5Z11anhmgrKD" id="slzZj2nYpp9q2PrkH6n9-72">
          <mxCell style="html=1;jettySize=18;whiteSpace=wrap;fontSize=11;strokeColor=#5E5E5E;rounded=1;arcSize=12;edgeStyle=orthogonalEdgeStyle;startArrow=none;;endArrow=block;endFill=1;;exitX=0.006;exitY=0.5;exitPerimeter=0;entryX=1.006;entryY=0.5;entryPerimeter=0;" edge="1" parent="1" source="slzZj2nYpp9q2PrkH6n9-55" target="slzZj2nYpp9q2PrkH6n9-52">
            <mxGeometry width="100" height="100" relative="1" as="geometry">
              <Array as="points">
                <mxPoint x="432" y="1279" />
              </Array>
            </mxGeometry>
          </mxCell>
        </UserObject>
        <UserObject label="" lucidchartObjectId="5Z11uqkwDgph" id="slzZj2nYpp9q2PrkH6n9-73">
          <mxCell style="html=1;jettySize=18;whiteSpace=wrap;fontSize=11;strokeColor=#5E5E5E;rounded=1;arcSize=12;edgeStyle=orthogonalEdgeStyle;startArrow=none;;endArrow=block;endFill=1;;exitX=0.5;exitY=-0.007;exitPerimeter=0;" edge="1" parent="1" source="slzZj2nYpp9q2PrkH6n9-52">
            <mxGeometry width="100" height="100" relative="1" as="geometry">
              <Array as="points">
                <mxPoint x="331" y="1198" />
                <mxPoint x="240" y="1198" />
                <mxPoint x="240" y="1350" />
              </Array>
              <mxPoint x="240" y="1350" as="targetPoint" />
            </mxGeometry>
          </mxCell>
        </UserObject>
        <UserObject label="" lucidchartObjectId="5Z11Z_Qr8Qe1" id="slzZj2nYpp9q2PrkH6n9-74">
          <mxCell style="html=1;jettySize=18;whiteSpace=wrap;fontSize=11;strokeColor=#5E5E5E;rounded=1;arcSize=12;edgeStyle=orthogonalEdgeStyle;startArrow=none;;endArrow=block;endFill=1;;exitX=0.008;exitY=0.5;exitPerimeter=0;entryX=0.5;entryY=-0.007;entryPerimeter=0;" edge="1" parent="1" source="slzZj2nYpp9q2PrkH6n9-40" target="slzZj2nYpp9q2PrkH6n9-32">
            <mxGeometry width="100" height="100" relative="1" as="geometry">
              <Array as="points" />
            </mxGeometry>
          </mxCell>
        </UserObject>
        <UserObject label="" lucidchartObjectId="5Z11K_A4dE._" id="slzZj2nYpp9q2PrkH6n9-75">
          <mxCell style="html=1;jettySize=18;whiteSpace=wrap;fontSize=11;strokeColor=#5E5E5E;rounded=1;arcSize=12;startArrow=none;;endArrow=block;endFill=1;;exitX=0.992;exitY=0.5;exitPerimeter=0;" edge="1" parent="1">
            <mxGeometry width="100" height="100" relative="1" as="geometry">
              <mxPoint x="-312.1120000000001" y="751" as="sourcePoint" />
              <mxPoint x="-165" y="751" as="targetPoint" />
            </mxGeometry>
          </mxCell>
        </UserObject>
        <UserObject label="" lucidchartObjectId="5Z11TvtzWn2T" id="slzZj2nYpp9q2PrkH6n9-76">
          <mxCell style="html=1;jettySize=18;whiteSpace=wrap;fontSize=11;strokeColor=#5E5E5E;rounded=1;arcSize=12;startArrow=none;;endArrow=block;endFill=1;;exitX=0.008;exitY=0.5;exitPerimeter=0;" edge="1" parent="1">
            <mxGeometry width="100" height="100" relative="1" as="geometry">
              <Array as="points">
                <mxPoint x="-687" y="750" />
              </Array>
              <mxPoint x="-448.88800000000015" y="750" as="sourcePoint" />
              <mxPoint x="-687" y="750" as="targetPoint" />
            </mxGeometry>
          </mxCell>
        </UserObject>
        <UserObject label="" lucidchartObjectId="5Z11YQdqDQZn" id="slzZj2nYpp9q2PrkH6n9-77">
          <mxCell style="html=1;jettySize=18;whiteSpace=wrap;fontSize=11;strokeColor=#5E5E5E;rounded=1;arcSize=12;edgeStyle=orthogonalEdgeStyle;startArrow=none;;endArrow=block;endFill=1;;exitX=0.5;exitY=0.998;exitPerimeter=0;entryX=1.006;entryY=0.299;entryPerimeter=0;" edge="1" parent="1" source="slzZj2nYpp9q2PrkH6n9-34" target="slzZj2nYpp9q2PrkH6n9-33">
            <mxGeometry width="100" height="100" relative="1" as="geometry">
              <Array as="points" />
            </mxGeometry>
          </mxCell>
        </UserObject>
        <UserObject label="" lucidchartObjectId="5Z11262eVGBi" id="slzZj2nYpp9q2PrkH6n9-78">
          <mxCell style="html=1;jettySize=18;whiteSpace=wrap;fontSize=11;strokeColor=#5E5E5E;rounded=1;arcSize=12;edgeStyle=orthogonalEdgeStyle;startArrow=none;;endArrow=block;endFill=1;;exitX=0.992;exitY=0.5;exitPerimeter=0;entryX=-0.005;entryY=0.301;entryPerimeter=0;" edge="1" parent="1" source="slzZj2nYpp9q2PrkH6n9-37" target="slzZj2nYpp9q2PrkH6n9-10">
            <mxGeometry width="100" height="100" relative="1" as="geometry">
              <Array as="points" />
            </mxGeometry>
          </mxCell>
        </UserObject>
        <UserObject label="" lucidchartObjectId="5Z11PutT9CG~" id="slzZj2nYpp9q2PrkH6n9-79">
          <mxCell style="html=1;jettySize=18;whiteSpace=wrap;fontSize=11;strokeColor=#5E5E5E;rounded=1;arcSize=12;edgeStyle=orthogonalEdgeStyle;startArrow=none;;endArrow=block;endFill=1;;exitX=0.994;exitY=0.5;exitPerimeter=0;entryX=-0.006;entryY=0.859;entryPerimeter=0;" edge="1" parent="1" source="slzZj2nYpp9q2PrkH6n9-16" target="slzZj2nYpp9q2PrkH6n9-12">
            <mxGeometry width="100" height="100" relative="1" as="geometry">
              <Array as="points" />
            </mxGeometry>
          </mxCell>
        </UserObject>
        <UserObject label="" lucidchartObjectId="5Z11IbVUOMD7" id="slzZj2nYpp9q2PrkH6n9-80">
          <mxCell style="html=1;jettySize=18;whiteSpace=wrap;fontSize=11;strokeColor=#5E5E5E;rounded=1;arcSize=12;edgeStyle=orthogonalEdgeStyle;startArrow=none;;endArrow=block;endFill=1;;exitX=0.5;exitY=0;exitPerimeter=0;entryX=-0.006;entryY=0.263;entryPerimeter=0;" edge="1" parent="1" source="slzZj2nYpp9q2PrkH6n9-15" target="slzZj2nYpp9q2PrkH6n9-12">
            <mxGeometry width="100" height="100" relative="1" as="geometry">
              <Array as="points" />
            </mxGeometry>
          </mxCell>
        </UserObject>
        <UserObject label="" lucidchartObjectId="5Z11J_gF9c9J" id="slzZj2nYpp9q2PrkH6n9-81">
          <mxCell style="html=1;jettySize=18;whiteSpace=wrap;fontSize=11;strokeColor=#5E5E5E;rounded=1;arcSize=12;startArrow=none;;endArrow=block;endFill=1;;exitX=0.008;exitY=0.5;exitPerimeter=0;" edge="1" parent="1" source="slzZj2nYpp9q2PrkH6n9-69">
            <mxGeometry width="100" height="100" relative="1" as="geometry">
              <mxPoint x="-490" y="1041" as="targetPoint" />
            </mxGeometry>
          </mxCell>
        </UserObject>
        <UserObject label="" lucidchartObjectId="5Z11JsUkW0Bc" id="slzZj2nYpp9q2PrkH6n9-82">
          <mxCell style="html=1;jettySize=18;whiteSpace=wrap;fontSize=11;strokeColor=#5E5E5E;rounded=1;arcSize=12;edgeStyle=orthogonalEdgeStyle;startArrow=none;;endArrow=block;endFill=1;;exitX=0.008;exitY=0.5;exitPerimeter=0;entryX=1.006;entryY=0.132;entryPerimeter=0;" edge="1" parent="1" source="slzZj2nYpp9q2PrkH6n9-70" target="slzZj2nYpp9q2PrkH6n9-66">
            <mxGeometry width="100" height="100" relative="1" as="geometry">
              <Array as="points" />
            </mxGeometry>
          </mxCell>
        </UserObject>
        <UserObject label="" lucidchartObjectId="5Z11GnWbACi7" id="slzZj2nYpp9q2PrkH6n9-83">
          <mxCell style="html=1;jettySize=18;whiteSpace=wrap;fontSize=11;strokeColor=#5E5E5E;rounded=1;arcSize=12;edgeStyle=orthogonalEdgeStyle;startArrow=none;;endArrow=block;endFill=1;;exitX=0.992;exitY=0.5;exitPerimeter=0;" edge="1" parent="1" source="slzZj2nYpp9q2PrkH6n9-70">
            <mxGeometry width="100" height="100" relative="1" as="geometry">
              <Array as="points" />
              <mxPoint x="-80" y="798" as="targetPoint" />
            </mxGeometry>
          </mxCell>
        </UserObject>
        <UserObject label="" lucidchartObjectId="5Z119HzDhkaY" id="slzZj2nYpp9q2PrkH6n9-84">
          <mxCell style="html=1;jettySize=18;whiteSpace=wrap;fontSize=11;strokeColor=#5E5E5E;rounded=1;arcSize=12;edgeStyle=orthogonalEdgeStyle;startArrow=none;;endArrow=block;endFill=1;;exitX=0.992;exitY=0.5;exitPerimeter=0;" edge="1" parent="1" source="slzZj2nYpp9q2PrkH6n9-69">
            <mxGeometry width="100" height="100" relative="1" as="geometry">
              <Array as="points" />
              <mxPoint x="-60" y="798" as="targetPoint" />
            </mxGeometry>
          </mxCell>
        </UserObject>
        <UserObject label="" lucidchartObjectId="5Z11kN1pvPSC" id="slzZj2nYpp9q2PrkH6n9-85">
          <mxCell style="html=1;jettySize=18;whiteSpace=wrap;fontSize=11;strokeColor=#5E5E5E;rounded=1;arcSize=12;edgeStyle=orthogonalEdgeStyle;startArrow=none;;endArrow=block;endFill=1;;exitX=0.992;exitY=0.5;exitPerimeter=0;entryX=0.5;entryY=-0.007;entryPerimeter=0;" edge="1" parent="1" source="slzZj2nYpp9q2PrkH6n9-19" target="slzZj2nYpp9q2PrkH6n9-12">
            <mxGeometry width="100" height="100" relative="1" as="geometry">
              <Array as="points" />
            </mxGeometry>
          </mxCell>
        </UserObject>
        <UserObject label="" lucidchartObjectId="5Z11l97eUnbX" id="slzZj2nYpp9q2PrkH6n9-86">
          <mxCell style="html=1;jettySize=18;whiteSpace=wrap;fontSize=11;strokeColor=#5E5E5E;rounded=1;arcSize=12;edgeStyle=orthogonalEdgeStyle;startArrow=none;;endArrow=block;endFill=1;;exitX=0.008;exitY=0.5;exitPerimeter=0;entryX=0.5;entryY=1.007;entryPerimeter=0;" edge="1" parent="1" source="slzZj2nYpp9q2PrkH6n9-27" target="slzZj2nYpp9q2PrkH6n9-13">
            <mxGeometry width="100" height="100" relative="1" as="geometry">
              <Array as="points">
                <mxPoint x="406" y="1138" />
                <mxPoint x="355" y="1138" />
              </Array>
            </mxGeometry>
          </mxCell>
        </UserObject>
        <UserObject label="(1,1)" lucidchartObjectId="5Z115S1hhG.G" id="slzZj2nYpp9q2PrkH6n9-87">
          <mxCell style="html=1;overflow=block;blockSpacing=1;whiteSpace=wrap;strokeColor=none;fillColor=none;whiteSpace=wrap;fontSize=18;fontColor=#333333;align=center;spacing=0;strokeOpacity=100;fillOpacity=100;rounded=1;absoluteArcSize=1;arcSize=7;strokeWidth=2;" vertex="1" parent="1">
            <mxGeometry x="-164" y="253" width="42" height="25" as="geometry" />
          </mxCell>
        </UserObject>
        <UserObject label="(0,N)" lucidchartObjectId="5Z113NDxofSv" id="slzZj2nYpp9q2PrkH6n9-88">
          <mxCell style="html=1;overflow=block;blockSpacing=1;whiteSpace=wrap;strokeColor=none;fillColor=none;whiteSpace=wrap;fontSize=18;fontColor=#333333;align=center;spacing=0;strokeOpacity=100;fillOpacity=100;rounded=1;absoluteArcSize=1;arcSize=7;strokeWidth=2;" vertex="1" parent="1">
            <mxGeometry x="-90" y="626" width="42" height="25" as="geometry" />
          </mxCell>
        </UserObject>
        <UserObject label="(0,N)" lucidchartObjectId="5Z115MA7gOWO" id="slzZj2nYpp9q2PrkH6n9-89">
          <mxCell style="html=1;overflow=block;blockSpacing=1;whiteSpace=wrap;strokeColor=none;fillColor=none;whiteSpace=wrap;fontSize=18;fontColor=#333333;align=center;spacing=0;strokeOpacity=100;fillOpacity=100;rounded=1;absoluteArcSize=1;arcSize=7;strokeWidth=2;" vertex="1" parent="1">
            <mxGeometry x="-90" y="252" width="42" height="25" as="geometry" />
          </mxCell>
        </UserObject>
        <UserObject label="(0,N)" lucidchartObjectId="5Z11lHZJK1Ye" id="slzZj2nYpp9q2PrkH6n9-90">
          <mxCell style="html=1;overflow=block;blockSpacing=1;whiteSpace=wrap;strokeColor=none;fillColor=none;whiteSpace=wrap;fontSize=18;fontColor=#333333;align=center;spacing=0;strokeOpacity=100;fillOpacity=100;rounded=1;absoluteArcSize=1;arcSize=7;strokeWidth=2;" vertex="1" parent="1">
            <mxGeometry x="13" y="734" width="42" height="25" as="geometry" />
          </mxCell>
        </UserObject>
        <UserObject label="(1,1)" lucidchartObjectId="5Z11Z32.xuNk" id="slzZj2nYpp9q2PrkH6n9-91">
          <mxCell style="html=1;overflow=block;blockSpacing=1;whiteSpace=wrap;strokeColor=none;fillColor=none;whiteSpace=wrap;fontSize=18;fontColor=#333333;align=center;spacing=0;strokeOpacity=100;fillOpacity=100;rounded=1;absoluteArcSize=1;arcSize=7;strokeWidth=2;" vertex="1" parent="1">
            <mxGeometry x="316" y="634" width="42" height="25" as="geometry" />
          </mxCell>
        </UserObject>
        <UserObject label="(0,N)" lucidchartObjectId="5Z11aoaLJge4" id="slzZj2nYpp9q2PrkH6n9-92">
          <mxCell style="html=1;overflow=block;blockSpacing=1;whiteSpace=wrap;strokeColor=none;fillColor=none;whiteSpace=wrap;fontSize=18;fontColor=#333333;align=center;spacing=0;strokeOpacity=100;fillOpacity=100;rounded=1;absoluteArcSize=1;arcSize=7;strokeWidth=2;" vertex="1" parent="1">
            <mxGeometry x="13" y="680" width="42" height="25" as="geometry" />
          </mxCell>
        </UserObject>
        <UserObject label="(0,N)" lucidchartObjectId="5Z11J6ZCeUWL" id="slzZj2nYpp9q2PrkH6n9-93">
          <mxCell style="html=1;overflow=block;blockSpacing=1;whiteSpace=wrap;strokeColor=none;fillColor=none;whiteSpace=wrap;fontSize=18;fontColor=#333333;align=center;spacing=0;strokeOpacity=100;fillOpacity=100;rounded=1;absoluteArcSize=1;arcSize=7;strokeWidth=2;" vertex="1" parent="1">
            <mxGeometry x="316" y="594" width="42" height="25" as="geometry" />
          </mxCell>
        </UserObject>
        <UserObject label="(0,N)" lucidchartObjectId="5Z113If4WE7X" id="slzZj2nYpp9q2PrkH6n9-94">
          <mxCell style="html=1;overflow=block;blockSpacing=1;whiteSpace=wrap;strokeColor=none;fillColor=none;whiteSpace=wrap;fontSize=18;fontColor=#333333;align=center;spacing=0;strokeOpacity=100;fillOpacity=100;rounded=1;absoluteArcSize=1;arcSize=7;strokeWidth=2;" vertex="1" parent="1">
            <mxGeometry x="50" y="1054" width="42" height="25" as="geometry" />
          </mxCell>
        </UserObject>
        <UserObject label="(1,1)" lucidchartObjectId="5Z11w5VW1Q-O" id="slzZj2nYpp9q2PrkH6n9-95">
          <mxCell style="html=1;overflow=block;blockSpacing=1;whiteSpace=wrap;strokeColor=none;fillColor=none;whiteSpace=wrap;fontSize=18;fontColor=#333333;align=center;spacing=0;strokeOpacity=100;fillOpacity=100;rounded=1;absoluteArcSize=1;arcSize=7;strokeWidth=2;" vertex="1" parent="1">
            <mxGeometry x="238" y="1054" width="42" height="25" as="geometry" />
          </mxCell>
        </UserObject>
        <UserObject label="(0,N)" lucidchartObjectId="5Z112dtSxHdH" id="slzZj2nYpp9q2PrkH6n9-96">
          <mxCell style="html=1;overflow=block;blockSpacing=1;whiteSpace=wrap;strokeColor=none;fillColor=none;whiteSpace=wrap;fontSize=18;fontColor=#333333;align=center;spacing=0;strokeOpacity=100;fillOpacity=100;rounded=1;absoluteArcSize=1;arcSize=7;strokeWidth=2;" vertex="1" parent="1">
            <mxGeometry x="20" y="960" width="42" height="25" as="geometry" />
          </mxCell>
        </UserObject>
        <UserObject label="(0,N)" lucidchartObjectId="5Z11x2hheSqF" id="slzZj2nYpp9q2PrkH6n9-97">
          <mxCell style="html=1;overflow=block;blockSpacing=1;whiteSpace=wrap;strokeColor=none;fillColor=none;whiteSpace=wrap;fontSize=18;fontColor=#333333;align=center;spacing=0;strokeOpacity=100;fillOpacity=100;rounded=1;absoluteArcSize=1;arcSize=7;strokeWidth=2;" vertex="1" parent="1">
            <mxGeometry x="238" y="960" width="42" height="25" as="geometry" />
          </mxCell>
        </UserObject>
        <UserObject label="(0,N)" lucidchartObjectId="5Z11~tXFGxAh" id="slzZj2nYpp9q2PrkH6n9-98">
          <mxCell style="html=1;overflow=block;blockSpacing=1;whiteSpace=wrap;strokeColor=none;fillColor=none;whiteSpace=wrap;fontSize=18;fontColor=#333333;align=center;spacing=0;strokeOpacity=100;fillOpacity=100;rounded=1;absoluteArcSize=1;arcSize=7;strokeWidth=2;" vertex="1" parent="1">
            <mxGeometry x="13" y="156" width="42" height="25" as="geometry" />
          </mxCell>
        </UserObject>
        <UserObject label="(1,1)" lucidchartObjectId="5Z11ArHPEV_-" id="slzZj2nYpp9q2PrkH6n9-99">
          <mxCell style="html=1;overflow=block;blockSpacing=1;whiteSpace=wrap;strokeColor=none;fillColor=none;whiteSpace=wrap;fontSize=18;fontColor=#333333;align=center;spacing=0;strokeOpacity=100;fillOpacity=100;rounded=1;absoluteArcSize=1;arcSize=7;strokeWidth=2;" vertex="1" parent="1">
            <mxGeometry x="449" y="530" width="42" height="25" as="geometry" />
          </mxCell>
        </UserObject>
        <UserObject label="(0,N)" lucidchartObjectId="5Z11kx7jA8GZ" id="slzZj2nYpp9q2PrkH6n9-100">
          <mxCell style="html=1;overflow=block;blockSpacing=1;whiteSpace=wrap;strokeColor=none;fillColor=none;whiteSpace=wrap;fontSize=18;fontColor=#333333;align=center;spacing=0;strokeOpacity=100;fillOpacity=100;rounded=1;absoluteArcSize=1;arcSize=7;strokeWidth=2;" vertex="1" parent="1">
            <mxGeometry x="358" y="690" width="42" height="25" as="geometry" />
          </mxCell>
        </UserObject>
        <UserObject label="(1,1)" lucidchartObjectId="5Z11f4KOLJK_" id="slzZj2nYpp9q2PrkH6n9-101">
          <mxCell style="html=1;overflow=block;blockSpacing=1;whiteSpace=wrap;strokeColor=none;fillColor=none;whiteSpace=wrap;fontSize=18;fontColor=#333333;align=center;spacing=0;strokeOpacity=100;fillOpacity=100;rounded=1;absoluteArcSize=1;arcSize=7;strokeWidth=2;" vertex="1" parent="1">
            <mxGeometry x="361" y="949" width="42" height="25" as="geometry" />
          </mxCell>
        </UserObject>
        <UserObject label="(0,1)" lucidchartObjectId="5Z11d-IWscU8" id="slzZj2nYpp9q2PrkH6n9-102">
          <mxCell style="html=1;overflow=block;blockSpacing=1;whiteSpace=wrap;strokeColor=none;fillColor=none;whiteSpace=wrap;fontSize=18;fontColor=#333333;align=center;spacing=0;strokeOpacity=100;fillOpacity=100;rounded=1;absoluteArcSize=1;arcSize=7;strokeWidth=2;" vertex="1" parent="1">
            <mxGeometry x="516" y="578" width="42" height="25" as="geometry" />
          </mxCell>
        </UserObject>
        <UserObject label="(1,1)" lucidchartObjectId="5Z118Xax0H3z" id="slzZj2nYpp9q2PrkH6n9-103">
          <mxCell style="html=1;overflow=block;blockSpacing=1;whiteSpace=wrap;strokeColor=none;fillColor=none;whiteSpace=wrap;fontSize=18;fontColor=#333333;align=center;spacing=0;strokeOpacity=100;fillOpacity=100;rounded=1;absoluteArcSize=1;arcSize=7;strokeWidth=2;" vertex="1" parent="1">
            <mxGeometry x="735" y="578" width="42" height="25" as="geometry" />
          </mxCell>
        </UserObject>
        <UserObject label="(0,N)" lucidchartObjectId="5Z11vX.k-axX" id="slzZj2nYpp9q2PrkH6n9-104">
          <mxCell style="html=1;overflow=block;blockSpacing=1;whiteSpace=wrap;strokeColor=none;fillColor=none;whiteSpace=wrap;fontSize=18;fontColor=#333333;align=center;spacing=0;strokeOpacity=100;fillOpacity=100;rounded=1;absoluteArcSize=1;arcSize=7;strokeWidth=2;" vertex="1" parent="1">
            <mxGeometry x="-11.5" y="1251.5" width="42" height="25" as="geometry" />
          </mxCell>
        </UserObject>
        <UserObject label="(1,1)" lucidchartObjectId="5Z11lLiUwaJ_" id="slzZj2nYpp9q2PrkH6n9-105">
          <mxCell style="html=1;overflow=block;blockSpacing=1;whiteSpace=wrap;strokeColor=none;fillColor=none;whiteSpace=wrap;fontSize=18;fontColor=#333333;align=center;spacing=0;strokeOpacity=100;fillOpacity=100;rounded=1;absoluteArcSize=1;arcSize=7;strokeWidth=2;" vertex="1" parent="1">
            <mxGeometry x="181.5" y="1251.5" width="42" height="25" as="geometry" />
          </mxCell>
        </UserObject>
        <UserObject label="(0,1)" lucidchartObjectId="5Z11NMsBKQ23" id="slzZj2nYpp9q2PrkH6n9-106">
          <mxCell style="html=1;overflow=block;blockSpacing=1;whiteSpace=wrap;strokeColor=none;fillColor=none;whiteSpace=wrap;fontSize=18;fontColor=#333333;align=center;spacing=0;strokeOpacity=100;fillOpacity=100;rounded=1;absoluteArcSize=1;arcSize=7;strokeWidth=2;" vertex="1" parent="1">
            <mxGeometry x="361" y="1109" width="42" height="25" as="geometry" />
          </mxCell>
        </UserObject>
        <UserObject label="(0,N)" lucidchartObjectId="5Z11FwRTwdjU" id="slzZj2nYpp9q2PrkH6n9-107">
          <mxCell style="html=1;overflow=block;blockSpacing=1;whiteSpace=wrap;strokeColor=none;fillColor=none;whiteSpace=wrap;fontSize=18;fontColor=#333333;align=center;spacing=0;strokeOpacity=100;fillOpacity=100;rounded=1;absoluteArcSize=1;arcSize=7;strokeWidth=2;" vertex="1" parent="1">
            <mxGeometry x="433" y="1011" width="42" height="25" as="geometry" />
          </mxCell>
        </UserObject>
        <UserObject label="(0,N)" lucidchartObjectId="5Z11mel1xulj" id="slzZj2nYpp9q2PrkH6n9-108">
          <mxCell style="html=1;overflow=block;blockSpacing=1;whiteSpace=wrap;strokeColor=none;fillColor=none;whiteSpace=wrap;fontSize=18;fontColor=#333333;align=center;spacing=0;strokeOpacity=100;fillOpacity=100;rounded=1;absoluteArcSize=1;arcSize=7;strokeWidth=2;" vertex="1" parent="1">
            <mxGeometry x="433" y="966" width="42" height="25" as="geometry" />
          </mxCell>
        </UserObject>
        <UserObject label="(1,1)" lucidchartObjectId="5Z112gDtx1PO" id="slzZj2nYpp9q2PrkH6n9-109">
          <mxCell style="html=1;overflow=block;blockSpacing=1;whiteSpace=wrap;strokeColor=none;fillColor=none;whiteSpace=wrap;fontSize=18;fontColor=#333333;align=center;spacing=0;strokeOpacity=100;fillOpacity=100;rounded=1;absoluteArcSize=1;arcSize=7;strokeWidth=2;" vertex="1" parent="1">
            <mxGeometry x="369" y="1246" width="42" height="25" as="geometry" />
          </mxCell>
        </UserObject>
        <UserObject label="(0,N)" lucidchartObjectId="5Z114bK1leJl" id="slzZj2nYpp9q2PrkH6n9-110">
          <mxCell style="html=1;overflow=block;blockSpacing=1;whiteSpace=wrap;strokeColor=none;fillColor=none;whiteSpace=wrap;fontSize=18;fontColor=#333333;align=center;spacing=0;strokeOpacity=100;fillOpacity=100;rounded=1;absoluteArcSize=1;arcSize=7;strokeWidth=2;" vertex="1" parent="1">
            <mxGeometry x="85" y="626" width="42" height="25" as="geometry" />
          </mxCell>
        </UserObject>
        <UserObject label="(0,N)" lucidchartObjectId="5Z11aURJfkDl" id="slzZj2nYpp9q2PrkH6n9-111">
          <mxCell style="html=1;overflow=block;blockSpacing=1;whiteSpace=wrap;strokeColor=none;fillColor=none;whiteSpace=wrap;fontSize=18;fontColor=#333333;align=center;spacing=0;strokeOpacity=100;fillOpacity=100;rounded=1;absoluteArcSize=1;arcSize=7;strokeWidth=2;" vertex="1" parent="1">
            <mxGeometry x="-2" y="626" width="42" height="25" as="geometry" />
          </mxCell>
        </UserObject>
        <UserObject label="(0,N)" lucidchartObjectId="5Z11HLc2~M-j" id="slzZj2nYpp9q2PrkH6n9-112">
          <mxCell style="html=1;overflow=block;blockSpacing=1;whiteSpace=wrap;strokeColor=none;fillColor=none;whiteSpace=wrap;fontSize=18;fontColor=#333333;align=center;spacing=0;strokeOpacity=100;fillOpacity=100;rounded=1;absoluteArcSize=1;arcSize=7;strokeWidth=2;" vertex="1" parent="1">
            <mxGeometry x="-164" y="1012" width="42" height="25" as="geometry" />
          </mxCell>
        </UserObject>
        <UserObject label="(1,1)" lucidchartObjectId="5Z110gaChO79" id="slzZj2nYpp9q2PrkH6n9-113">
          <mxCell style="html=1;overflow=block;blockSpacing=1;whiteSpace=wrap;strokeColor=none;fillColor=none;whiteSpace=wrap;fontSize=18;fontColor=#333333;align=center;spacing=0;strokeOpacity=100;fillOpacity=100;rounded=1;absoluteArcSize=1;arcSize=7;strokeWidth=2;" vertex="1" parent="1">
            <mxGeometry x="-343" y="1012" width="42" height="25" as="geometry" />
          </mxCell>
        </UserObject>
        <UserObject label="(0,N)" lucidchartObjectId="5Z11bfAPcn1R" id="slzZj2nYpp9q2PrkH6n9-114">
          <mxCell style="html=1;overflow=block;blockSpacing=1;whiteSpace=wrap;strokeColor=none;fillColor=none;whiteSpace=wrap;fontSize=18;fontColor=#333333;align=center;spacing=0;strokeOpacity=100;fillOpacity=100;rounded=1;absoluteArcSize=1;arcSize=7;strokeWidth=2;" vertex="1" parent="1">
            <mxGeometry x="-245" y="916" width="42" height="25" as="geometry" />
          </mxCell>
        </UserObject>
        <UserObject label="(1,1)" lucidchartObjectId="5Z1184bHG2Gt" id="slzZj2nYpp9q2PrkH6n9-115">
          <mxCell style="html=1;overflow=block;blockSpacing=1;whiteSpace=wrap;strokeColor=none;fillColor=none;whiteSpace=wrap;fontSize=18;fontColor=#333333;align=center;spacing=0;strokeOpacity=100;fillOpacity=100;rounded=1;absoluteArcSize=1;arcSize=7;strokeWidth=2;" vertex="1" parent="1">
            <mxGeometry x="-423" y="916" width="42" height="25" as="geometry" />
          </mxCell>
        </UserObject>
        <UserObject label="(0,N)" lucidchartObjectId="5Z11Rwgz-~jb" id="slzZj2nYpp9q2PrkH6n9-116">
          <mxCell style="html=1;overflow=block;blockSpacing=1;whiteSpace=wrap;strokeColor=none;fillColor=none;whiteSpace=wrap;fontSize=18;fontColor=#333333;align=center;spacing=0;strokeOpacity=100;fillOpacity=100;rounded=1;absoluteArcSize=1;arcSize=7;strokeWidth=2;" vertex="1" parent="1">
            <mxGeometry x="-277.5" y="534" width="42" height="25" as="geometry" />
          </mxCell>
        </UserObject>
        <UserObject label="(1,1)" lucidchartObjectId="5Z11lqC8F.8T" id="slzZj2nYpp9q2PrkH6n9-117">
          <mxCell style="html=1;overflow=block;blockSpacing=1;whiteSpace=wrap;strokeColor=none;fillColor=none;whiteSpace=wrap;fontSize=18;fontColor=#333333;align=center;spacing=0;strokeOpacity=100;fillOpacity=100;rounded=1;absoluteArcSize=1;arcSize=7;strokeWidth=2;" vertex="1" parent="1">
            <mxGeometry x="-456.5" y="534" width="42" height="25" as="geometry" />
          </mxCell>
        </UserObject>
        <UserObject label="(2,N)" lucidchartObjectId="5Z11NiZtwywj" id="slzZj2nYpp9q2PrkH6n9-118">
          <mxCell style="html=1;overflow=block;blockSpacing=1;whiteSpace=wrap;strokeColor=none;fillColor=none;whiteSpace=wrap;fontSize=18;fontColor=#333333;align=center;spacing=0;strokeOpacity=100;fillOpacity=100;rounded=1;absoluteArcSize=1;arcSize=7;strokeWidth=2;" vertex="1" parent="1">
            <mxGeometry x="-451.5" y="234" width="42" height="25" as="geometry" />
          </mxCell>
        </UserObject>
        <UserObject label="(0,N)" lucidchartObjectId="5Z11.cNyT~L." id="slzZj2nYpp9q2PrkH6n9-119">
          <mxCell style="html=1;overflow=block;blockSpacing=1;whiteSpace=wrap;strokeColor=none;fillColor=none;whiteSpace=wrap;fontSize=18;fontColor=#333333;align=center;spacing=0;strokeOpacity=100;fillOpacity=100;rounded=1;absoluteArcSize=1;arcSize=7;strokeWidth=2;" vertex="1" parent="1">
            <mxGeometry x="-237" y="228" width="42" height="25" as="geometry" />
          </mxCell>
        </UserObject>
        <UserObject label="(0,N)" lucidchartObjectId="5Z11-8PXW0iO" id="slzZj2nYpp9q2PrkH6n9-120">
          <mxCell style="html=1;overflow=block;blockSpacing=1;whiteSpace=wrap;strokeColor=none;fillColor=none;whiteSpace=wrap;fontSize=18;fontColor=#333333;align=center;spacing=0;strokeOpacity=100;fillOpacity=100;rounded=1;absoluteArcSize=1;arcSize=7;strokeWidth=2;" vertex="1" parent="1">
            <mxGeometry x="-306" y="725" width="42" height="25" as="geometry" />
          </mxCell>
        </UserObject>
        <UserObject label="(1,1)" lucidchartObjectId="5Z115IxPwP-9" id="slzZj2nYpp9q2PrkH6n9-121">
          <mxCell style="html=1;overflow=block;blockSpacing=1;whiteSpace=wrap;strokeColor=none;fillColor=none;whiteSpace=wrap;fontSize=18;fontColor=#333333;align=center;spacing=0;strokeOpacity=100;fillOpacity=100;rounded=1;absoluteArcSize=1;arcSize=7;strokeWidth=2;" vertex="1" parent="1">
            <mxGeometry x="-503" y="726" width="42" height="25" as="geometry" />
          </mxCell>
        </UserObject>
        <UserObject label="(0,N)" lucidchartObjectId="5Z11geeHzoCO" id="slzZj2nYpp9q2PrkH6n9-122">
          <mxCell style="html=1;overflow=block;blockSpacing=1;whiteSpace=wrap;strokeColor=none;fillColor=none;whiteSpace=wrap;fontSize=18;fontColor=#333333;align=center;spacing=0;strokeOpacity=100;fillOpacity=100;rounded=1;absoluteArcSize=1;arcSize=7;strokeWidth=2;" vertex="1" parent="1">
            <mxGeometry x="-647" y="680" width="42" height="25" as="geometry" />
          </mxCell>
        </UserObject>
        <UserObject label="(1,1)" lucidchartObjectId="5Z11Pki35EC_" id="slzZj2nYpp9q2PrkH6n9-123">
          <mxCell style="html=1;overflow=block;blockSpacing=1;whiteSpace=wrap;strokeColor=none;fillColor=none;whiteSpace=wrap;fontSize=18;fontColor=#333333;align=center;spacing=0;strokeOpacity=100;fillOpacity=100;rounded=1;absoluteArcSize=1;arcSize=7;strokeWidth=2;" vertex="1" parent="1">
            <mxGeometry x="-647" y="385" width="42" height="25" as="geometry" />
          </mxCell>
        </UserObject>
        <UserObject label="(0,N)" lucidchartObjectId="5Z11n-Kphtv1" id="slzZj2nYpp9q2PrkH6n9-124">
          <mxCell style="html=1;overflow=block;blockSpacing=1;whiteSpace=wrap;strokeColor=none;fillColor=none;whiteSpace=wrap;fontSize=18;fontColor=#333333;align=center;spacing=0;strokeOpacity=100;fillOpacity=100;rounded=1;absoluteArcSize=1;arcSize=7;strokeWidth=2;" vertex="1" parent="1">
            <mxGeometry x="-371" y="668" width="42" height="25" as="geometry" />
          </mxCell>
        </UserObject>
        <UserObject label="(1,1)" lucidchartObjectId="5Z11QqX8pwJ8" id="slzZj2nYpp9q2PrkH6n9-125">
          <mxCell style="html=1;overflow=block;blockSpacing=1;whiteSpace=wrap;strokeColor=none;fillColor=none;whiteSpace=wrap;fontSize=18;fontColor=#333333;align=center;spacing=0;strokeOpacity=100;fillOpacity=100;rounded=1;absoluteArcSize=1;arcSize=7;strokeWidth=2;" vertex="1" parent="1">
            <mxGeometry x="-550" y="668" width="42" height="25" as="geometry" />
          </mxCell>
        </UserObject>
        <UserObject label="(0,N)" lucidchartObjectId="5Z112MxyFUIE" id="slzZj2nYpp9q2PrkH6n9-126">
          <mxCell style="html=1;overflow=block;blockSpacing=1;whiteSpace=wrap;strokeColor=none;fillColor=none;whiteSpace=wrap;fontSize=18;fontColor=#333333;align=center;spacing=0;strokeOpacity=100;fillOpacity=100;rounded=1;absoluteArcSize=1;arcSize=7;strokeWidth=2;" vertex="1" parent="1">
            <mxGeometry x="-179" y="96" width="42" height="25" as="geometry" />
          </mxCell>
        </UserObject>
        <UserObject label="(1,1)" lucidchartObjectId="5Z11dpsCaAYO" id="slzZj2nYpp9q2PrkH6n9-127">
          <mxCell style="html=1;overflow=block;blockSpacing=1;whiteSpace=wrap;strokeColor=none;fillColor=none;whiteSpace=wrap;fontSize=18;fontColor=#333333;align=center;spacing=0;strokeOpacity=100;fillOpacity=100;rounded=1;absoluteArcSize=1;arcSize=7;strokeWidth=2;" vertex="1" parent="1">
            <mxGeometry x="-647" y="217" width="42" height="25" as="geometry" />
          </mxCell>
        </UserObject>
        <UserObject label="(1,N)" lucidchartObjectId="5Z11iKSAvQ5." id="slzZj2nYpp9q2PrkH6n9-128">
          <mxCell style="html=1;overflow=block;blockSpacing=1;whiteSpace=wrap;strokeColor=none;fillColor=none;whiteSpace=wrap;fontSize=18;fontColor=#333333;align=center;spacing=0;strokeOpacity=100;fillOpacity=100;rounded=1;absoluteArcSize=1;arcSize=7;strokeWidth=2;" vertex="1" parent="1">
            <mxGeometry x="-48" y="84" width="42" height="25" as="geometry" />
          </mxCell>
        </UserObject>
        <UserObject label="(1,1)" lucidchartObjectId="5Z113n8Mxfh6" id="slzZj2nYpp9q2PrkH6n9-129">
          <mxCell style="html=1;overflow=block;blockSpacing=1;whiteSpace=wrap;strokeColor=none;fillColor=none;whiteSpace=wrap;fontSize=18;fontColor=#333333;align=center;spacing=0;strokeOpacity=100;fillOpacity=100;rounded=1;absoluteArcSize=1;arcSize=7;strokeWidth=2;" vertex="1" parent="1">
            <mxGeometry x="-803" y="642" width="42" height="25" as="geometry" />
          </mxCell>
        </UserObject>
        <mxCell id="slzZj2nYpp9q2PrkH6n9-152" value="" style="endArrow=none;html=1;startArrow=oval;startFill=1;strokeColor=#5e5e5e;" edge="1" parent="1">
          <mxGeometry width="50" height="50" relative="1" as="geometry">
            <mxPoint x="-110" y="840" as="sourcePoint" />
            <mxPoint x="-110" y="796" as="targetPoint" />
          </mxGeometry>
        </mxCell>
        <mxCell id="slzZj2nYpp9q2PrkH6n9-153" value="username" style="edgeLabel;html=1;align=center;verticalAlign=middle;resizable=0;points=[];fontSize=15;" vertex="1" connectable="0" parent="slzZj2nYpp9q2PrkH6n9-152">
          <mxGeometry x="-0.4925" relative="1" as="geometry">
            <mxPoint x="-7.5" y="25.95" as="offset" />
          </mxGeometry>
        </mxCell>
        <mxCell id="slzZj2nYpp9q2PrkH6n9-162" value="" style="endArrow=none;html=1;startArrow=oval;startFill=1;strokeColor=#5e5e5e;entryX=-0.004;entryY=0.951;entryDx=0;entryDy=0;entryPerimeter=0;" edge="1" parent="1">
          <mxGeometry width="50" height="50" relative="1" as="geometry">
            <mxPoint x="-209" y="790" as="sourcePoint" />
            <mxPoint x="-164.692" y="789.895" as="targetPoint" />
          </mxGeometry>
        </mxCell>
        <mxCell id="slzZj2nYpp9q2PrkH6n9-163" value="password" style="edgeLabel;html=1;align=center;verticalAlign=middle;resizable=0;points=[];fontSize=15;" vertex="1" connectable="0" parent="slzZj2nYpp9q2PrkH6n9-162">
          <mxGeometry x="-0.4925" relative="1" as="geometry">
            <mxPoint x="-52.22" as="offset" />
          </mxGeometry>
        </mxCell>
        <mxCell id="slzZj2nYpp9q2PrkH6n9-164" value="" style="endArrow=none;html=1;entryX=0.25;entryY=1;entryDx=0;entryDy=0;startArrow=oval;startFill=1;strokeColor=#5e5e5e;" edge="1" parent="1">
          <mxGeometry width="50" height="50" relative="1" as="geometry">
            <mxPoint x="-151.5" y="840" as="sourcePoint" />
            <mxPoint x="-151.25" y="796" as="targetPoint" />
          </mxGeometry>
        </mxCell>
        <mxCell id="slzZj2nYpp9q2PrkH6n9-165" value="email" style="edgeLabel;html=1;align=center;verticalAlign=middle;resizable=0;points=[];fontSize=15;" vertex="1" connectable="0" parent="slzZj2nYpp9q2PrkH6n9-164">
          <mxGeometry x="-0.4925" relative="1" as="geometry">
            <mxPoint x="-26.56" y="9.95" as="offset" />
          </mxGeometry>
        </mxCell>
        <mxCell id="slzZj2nYpp9q2PrkH6n9-168" value="" style="endArrow=none;html=1;startArrow=oval;startFill=1;strokeColor=#5e5e5e;entryX=0.003;entryY=0.092;entryDx=0;entryDy=0;entryPerimeter=0;" edge="1" parent="1" target="slzZj2nYpp9q2PrkH6n9-66">
          <mxGeometry width="50" height="50" relative="1" as="geometry">
            <mxPoint x="-674.65" y="939.52" as="sourcePoint" />
            <mxPoint x="-628.996" y="939.9100000000001" as="targetPoint" />
          </mxGeometry>
        </mxCell>
        <mxCell id="slzZj2nYpp9q2PrkH6n9-169" value="ID" style="edgeLabel;html=1;align=center;verticalAlign=middle;resizable=0;points=[];fontSize=15;" vertex="1" connectable="0" parent="slzZj2nYpp9q2PrkH6n9-168">
          <mxGeometry x="-0.4925" relative="1" as="geometry">
            <mxPoint x="-57.22" as="offset" />
          </mxGeometry>
        </mxCell>
        <mxCell id="slzZj2nYpp9q2PrkH6n9-170" value="" style="endArrow=none;html=1;startArrow=oval;startFill=1;strokeColor=#5e5e5e;entryX=0.004;entryY=0.485;entryDx=0;entryDy=0;entryPerimeter=0;" edge="1" parent="1" target="slzZj2nYpp9q2PrkH6n9-66">
          <mxGeometry width="50" height="50" relative="1" as="geometry">
            <mxPoint x="-674.33" y="989.26" as="sourcePoint" />
            <mxPoint x="-628.676" y="989.6500000000001" as="targetPoint" />
          </mxGeometry>
        </mxCell>
        <mxCell id="slzZj2nYpp9q2PrkH6n9-171" value="contenuto" style="edgeLabel;html=1;align=center;verticalAlign=middle;resizable=0;points=[];fontSize=15;" vertex="1" connectable="0" parent="slzZj2nYpp9q2PrkH6n9-170">
          <mxGeometry x="-0.4925" relative="1" as="geometry">
            <mxPoint x="-56.22" as="offset" />
          </mxGeometry>
        </mxCell>
        <mxCell id="slzZj2nYpp9q2PrkH6n9-172" value="" style="endArrow=none;html=1;startArrow=oval;startFill=1;strokeColor=#5e5e5e;entryX=0;entryY=0.889;entryDx=0;entryDy=0;entryPerimeter=0;strokeWidth=1;" edge="1" parent="1" target="slzZj2nYpp9q2PrkH6n9-66">
          <mxGeometry width="50" height="50" relative="1" as="geometry">
            <mxPoint x="-674.33" y="1040" as="sourcePoint" />
            <mxPoint x="-628.676" y="1040.39" as="targetPoint" />
          </mxGeometry>
        </mxCell>
        <mxCell id="slzZj2nYpp9q2PrkH6n9-173" value="destinatario" style="edgeLabel;html=1;align=center;verticalAlign=middle;resizable=0;points=[];fontSize=15;" vertex="1" connectable="0" parent="slzZj2nYpp9q2PrkH6n9-172">
          <mxGeometry x="-0.4925" relative="1" as="geometry">
            <mxPoint x="-57.22" as="offset" />
          </mxGeometry>
        </mxCell>
        <mxCell id="slzZj2nYpp9q2PrkH6n9-178" value="" style="endArrow=none;html=1;startArrow=oval;startFill=1;strokeColor=#5e5e5e;" edge="1" parent="1">
          <mxGeometry width="50" height="50" relative="1" as="geometry">
            <mxPoint x="-761" y="836.9999999999998" as="sourcePoint" />
            <mxPoint x="-761" y="793" as="targetPoint" />
          </mxGeometry>
        </mxCell>
        <mxCell id="slzZj2nYpp9q2PrkH6n9-179" value="dataInizio" style="edgeLabel;html=1;align=center;verticalAlign=middle;resizable=0;points=[];fontSize=15;" vertex="1" connectable="0" parent="slzZj2nYpp9q2PrkH6n9-178">
          <mxGeometry x="-0.4925" relative="1" as="geometry">
            <mxPoint x="-7.5" y="25.95" as="offset" />
          </mxGeometry>
        </mxCell>
        <mxCell id="slzZj2nYpp9q2PrkH6n9-180" value="" style="endArrow=none;html=1;startArrow=oval;startFill=1;strokeColor=#5e5e5e;entryX=0;entryY=0.821;entryDx=0;entryDy=0;entryPerimeter=0;" edge="1" parent="1">
          <mxGeometry width="50" height="50" relative="1" as="geometry">
            <mxPoint x="-209.65" y="770" as="sourcePoint" />
            <mxPoint x="-164" y="770.045" as="targetPoint" />
          </mxGeometry>
        </mxCell>
        <mxCell id="slzZj2nYpp9q2PrkH6n9-181" value="isAdmin" style="edgeLabel;html=1;align=center;verticalAlign=middle;resizable=0;points=[];fontSize=15;" vertex="1" connectable="0" parent="slzZj2nYpp9q2PrkH6n9-180">
          <mxGeometry x="-0.4925" relative="1" as="geometry">
            <mxPoint x="-52.22" as="offset" />
          </mxGeometry>
        </mxCell>
        <mxCell id="slzZj2nYpp9q2PrkH6n9-182" value="" style="endArrow=none;html=1;startArrow=oval;startFill=1;strokeColor=#5e5e5e;entryX=0.002;entryY=0.448;entryDx=0;entryDy=0;entryPerimeter=0;" edge="1" parent="1">
          <mxGeometry width="50" height="50" relative="1" as="geometry">
            <mxPoint x="-209.6500000000001" y="720" as="sourcePoint" />
            <mxPoint x="-163.654" y="719.9599999999999" as="targetPoint" />
          </mxGeometry>
        </mxCell>
        <mxCell id="slzZj2nYpp9q2PrkH6n9-183" value="isDeleted" style="edgeLabel;html=1;align=center;verticalAlign=middle;resizable=0;points=[];fontSize=15;" vertex="1" connectable="0" parent="slzZj2nYpp9q2PrkH6n9-182">
          <mxGeometry x="-0.4925" relative="1" as="geometry">
            <mxPoint x="-52.22" y="-3" as="offset" />
          </mxGeometry>
        </mxCell>
        <mxCell id="slzZj2nYpp9q2PrkH6n9-184" value="" style="endArrow=none;html=1;startArrow=oval;startFill=1;strokeColor=#5e5e5e;entryX=0;entryY=0.288;entryDx=0;entryDy=0;entryPerimeter=0;" edge="1" parent="1">
          <mxGeometry width="50" height="50" relative="1" as="geometry">
            <mxPoint x="-674.65" y="965" as="sourcePoint" />
            <mxPoint x="-629" y="965.2879999999998" as="targetPoint" />
          </mxGeometry>
        </mxCell>
        <mxCell id="slzZj2nYpp9q2PrkH6n9-185" value="dataInvio" style="edgeLabel;html=1;align=center;verticalAlign=middle;resizable=0;points=[];fontSize=15;" vertex="1" connectable="0" parent="slzZj2nYpp9q2PrkH6n9-184">
          <mxGeometry x="-0.4925" relative="1" as="geometry">
            <mxPoint x="-56.22" as="offset" />
          </mxGeometry>
        </mxCell>
        <mxCell id="slzZj2nYpp9q2PrkH6n9-186" value="" style="endArrow=none;html=1;startArrow=oval;startFill=1;strokeColor=#5e5e5e;entryX=0.004;entryY=0.485;entryDx=0;entryDy=0;entryPerimeter=0;" edge="1" parent="1">
          <mxGeometry width="50" height="50" relative="1" as="geometry">
            <mxPoint x="-674.8899999999999" y="1015.15" as="sourcePoint" />
            <mxPoint x="-629.0039999999999" y="1015.0000000000001" as="targetPoint" />
          </mxGeometry>
        </mxCell>
        <mxCell id="slzZj2nYpp9q2PrkH6n9-187" value="mittente" style="edgeLabel;html=1;align=center;verticalAlign=middle;resizable=0;points=[];fontSize=15;" vertex="1" connectable="0" parent="slzZj2nYpp9q2PrkH6n9-186">
          <mxGeometry x="-0.4925" relative="1" as="geometry">
            <mxPoint x="-56.22" as="offset" />
          </mxGeometry>
        </mxCell>
      </root>
    </mxGraphModel>
  </diagram>
</mxfile>
